<svg width="192" height="83" viewBox="0 0 192 83" fill="none" xmlns="http://www.w3.org/2000/svg">
<path fill-rule="evenodd" clip-rule="evenodd" d="M114.186 69.1372C112.902 70.1231 111.52 71.0112 110.138 71.8006V67.6589C110.926 67.3628 111.816 66.9681 112.606 66.673C114.382 65.8836 115.966 67.8572 114.185 69.1372H114.186ZM123.564 62.2316C123.564 61.4422 123.366 60.8501 123.169 60.555C122.281 59.4696 115.765 58.4828 110.138 60.1594V63.2165C113.593 62.9214 117.64 62.8218 118.63 64.1019C120.012 65.7785 117.05 73.0769 115.766 76.2328C115.371 77.2196 116.264 77.6161 117.15 76.9245C121.592 73.1765 123.468 66.3705 123.567 62.8191V62.2335L123.564 62.2316ZM110.138 71.7997C99.7717 78.0136 86.3446 81.269 74.6954 81.269C55.9375 81.269 39.1542 74.3653 26.4185 62.8246C25.3329 61.9374 26.2209 60.6546 27.5049 61.3453C41.2283 69.3318 58.2065 74.1642 75.7818 74.167C86.8394 74.167 98.7849 72.0966 110.139 67.657V71.7997H110.138ZM110.138 60.1566C108.624 60.6255 107.192 61.3244 105.892 62.2288C104.906 62.9187 105.102 63.8058 106.086 63.7081C107.172 63.5107 108.554 63.412 110.134 63.2147V60.1612L110.138 60.1566Z" fill="#B9B9B9"/>
<path fill-rule="evenodd" clip-rule="evenodd" d="M188.98 32.643V32.1505C189.305 32.1536 189.627 32.0919 189.928 31.9691C190.229 31.8462 190.502 31.6647 190.732 31.4351C190.961 31.2054 191.143 30.9323 191.266 30.6318C191.389 30.3312 191.45 30.0092 191.447 29.6845C191.447 28.303 190.263 27.2185 188.98 27.2185V26.726C190.558 26.726 191.943 28.0079 191.943 29.6845C191.941 31.2633 190.56 32.6467 188.982 32.6467L188.98 32.643ZM188.98 29.9796H189.078C189.275 29.9796 189.373 30.0811 189.373 30.2756C189.373 30.3771 189.474 31.161 189.567 31.3611H190.257C190.134 31.0807 190.067 30.779 190.06 30.473C189.962 30.0783 189.962 29.7823 189.467 29.6845C189.763 29.5867 190.158 29.4871 190.158 28.896C190.158 28.0079 189.368 28.0079 188.974 28.0079V28.5013C189.172 28.5013 189.463 28.5013 189.463 28.9947C189.463 29.192 189.365 29.4881 188.97 29.4881V29.9796H188.98ZM188.98 26.7251V27.2176C187.598 27.2176 186.413 28.3021 186.413 29.6836C186.413 31.0669 187.594 32.1459 188.979 32.1496V32.6421C187.3 32.6421 185.919 31.3602 185.919 29.6836C185.919 28.007 187.3 26.726 188.982 26.7251H188.98ZM188.98 28.007H187.794V31.3611H188.486V29.9796H188.98V29.4871H188.486V28.5013H188.98V28.007ZM143.406 58.5833V52.6654C147.654 52.5667 147.85 46.4514 147.85 42.8022C147.85 40.3362 147.751 37.3768 146.961 35.0094C146.37 33.0368 145.185 32.2474 143.406 32.1496V26.2308C151.699 26.3322 156.246 33.5348 156.246 42.7017C156.244 51.5799 151.209 58.4873 143.409 58.5833H143.406ZM167.201 57.9921H161.574C160.981 57.8934 160.487 57.4987 160.487 56.9067V27.8096C160.586 27.2176 160.981 26.8238 161.574 26.8238H166.905C167.398 26.8238 167.791 27.2203 167.893 27.7109V32.1496H167.992C169.57 28.1057 171.842 26.2308 175.79 26.2308C178.258 26.2308 180.821 27.1161 182.408 29.6836C183.889 32.0537 183.885 35.8994 183.885 38.7582V57.0053C183.788 57.4978 183.392 57.9912 182.8 57.9912H177.074C176.581 57.8925 176.087 57.4978 176.087 57.0053V41.3229C176.087 38.0675 176.482 33.4324 172.532 33.4324C171.15 33.4324 169.866 34.3196 169.176 35.7988C168.387 37.5741 168.287 39.3503 168.287 41.322V56.9057C168.287 57.5006 167.797 57.9893 167.197 57.9921H167.201ZM106.386 31.9522V27.8096C106.386 27.2176 106.88 26.7251 107.473 26.7251H126.132C126.725 26.7251 127.221 27.2139 127.221 27.8096V31.3611C127.221 31.9522 126.728 32.7417 125.839 34.0245L116.16 47.832C119.715 47.7342 123.563 48.33 126.822 50.1016C127.512 50.5904 127.708 51.1898 127.809 51.7773V56.1172C127.809 56.7084 127.119 57.4 126.427 57.1031C120.602 54.0459 113.001 53.749 106.682 57.1031C105.991 57.4978 105.3 56.7075 105.3 56.1172V51.9746C105.3 51.3825 105.3 50.1984 105.991 49.1139L117.246 33.0359H107.472C106.88 33.034 106.385 32.6467 106.385 31.9522H106.386ZM143.406 26.2308V32.1496C139.163 32.1496 138.965 37.8701 138.965 41.4216C138.965 45.0709 138.867 52.6635 143.312 52.6654H143.405V58.5833H143.308C135.015 58.5833 130.474 51.3825 130.474 42.4075C130.474 33.3328 135.113 26.2308 143.308 26.2308C143.406 26.228 143.409 26.228 143.409 26.2308H143.406ZM87.2335 57.8925V52.6654C88.5166 52.3693 89.6031 51.4812 90.3923 50.1016C91.4788 48.128 91.4788 46.3537 91.4788 44.085V42.9018C89.9982 42.9018 88.5166 42.9995 87.2335 43.2965V38.7592C88.7141 38.5609 90.1948 38.4631 91.4788 38.3645V37.575C91.4788 36.1945 91.5766 34.6165 90.7874 33.4333C90.096 32.4466 88.7141 31.9532 87.5298 31.9532H87.2335V25.9366H88.4151C91.1788 25.9366 94.7289 26.7297 96.9074 28.7973C99.6711 31.3611 99.4735 34.8102 99.4735 38.5609V47.4391C99.4735 50.1043 100.563 51.2848 101.55 52.6681C101.946 53.1569 102.049 53.7563 101.55 54.1474C100.465 55.1341 98.3908 56.9094 97.2065 57.8953C96.8114 58.1913 96.3185 58.1913 95.8255 57.9967C93.9489 56.4188 93.6526 55.7281 92.568 54.2488C90.6895 56.2187 89.1046 57.2977 87.2308 57.8925H87.2335ZM87.2335 25.9357V31.9522C85.1594 32.1496 83.4822 33.2351 82.9874 35.405C82.8895 35.8984 82.4935 36.3909 82.0006 36.4905L76.4714 35.7998C75.9775 35.7011 75.4846 35.405 75.6822 34.6156C76.8674 28.4045 82.0985 26.228 87.2308 25.9357H87.2335ZM87.2335 38.7582V43.2956C84.864 43.9854 82.9874 45.4646 82.9874 48.6168C82.9874 51.0791 84.2705 52.7576 86.4397 52.7594C86.736 52.7594 86.9345 52.6617 87.2298 52.6617V57.8888C85.9066 58.2223 84.5469 58.3896 83.1822 58.3868C78.4431 58.3868 74.6917 55.4283 74.6917 49.6073C74.6917 44.9722 77.16 41.8154 80.7139 40.3362C82.5942 39.4435 84.96 39.0561 87.2308 38.7582H87.2335ZM12.5963 57.8925V52.6654C13.8812 52.3693 15.0655 51.4812 15.7569 50.1016C16.9403 48.128 16.8425 46.3537 16.8425 44.085V42.9018C15.3618 42.9018 13.8812 42.9995 12.5963 43.2965V38.7592C14.0778 38.5609 15.5585 38.4631 16.8425 38.3645V37.575C16.8425 36.1945 16.9403 34.6165 16.152 33.4333C15.4606 32.4466 14.1766 31.9532 12.9923 31.9532H12.5963V25.9366H13.7778C16.5425 25.9366 20.0917 26.7297 22.3625 28.7955C25.1271 31.3593 24.8271 34.8084 24.8271 38.559V47.4373C24.8271 50.1025 25.9163 51.2829 26.9963 52.6644C27.2917 53.1532 27.3932 53.749 26.8975 54.14C25.812 55.1268 23.7397 56.902 22.5535 57.8879C22.1585 58.1839 21.6646 58.1839 21.1717 57.9866C19.296 56.4087 18.9997 55.7179 17.9142 54.2387C16.0532 56.2187 14.4738 57.2977 12.6 57.8925H12.5963ZM38.1674 57.9921H32.4415C31.8489 57.8934 31.4538 57.4987 31.4538 57.0063V27.9083C31.4538 27.3162 31.9486 26.8238 32.5412 26.8238H37.7723C38.3649 26.8238 38.8615 27.3125 38.8615 27.8096V31.6562H38.9603C40.3431 27.9083 42.9092 26.2308 46.4649 26.2308C50.0178 26.2308 52.2895 27.9092 53.868 31.6562C55.2498 27.9083 58.3098 26.2308 61.6671 26.2308C64.1354 26.2308 66.7071 27.2176 68.2855 29.3848C70.0625 31.8471 69.7625 35.3977 69.7625 38.5572V56.9039C69.7625 57.496 69.2686 57.9893 68.5782 57.9893H62.9502C62.3575 57.8907 61.9625 57.496 61.9625 56.9039V41.5194C61.9625 40.3362 62.0612 37.1794 61.7649 36.0949C61.3698 34.1213 60.0868 33.5302 58.4086 33.5302C57.0258 33.5302 55.644 34.4173 55.0514 35.9003C54.4597 37.3795 54.4597 39.8455 54.4597 41.5221V56.9094C54.4597 57.5015 53.9649 57.9949 53.3732 57.9949H47.6465C47.1535 57.8962 46.6597 57.5015 46.6597 56.9094V41.5194C46.6597 38.2649 47.1535 33.4315 43.2046 33.4315C39.0591 33.4315 39.2548 38.1662 39.2548 41.5194V56.9067C39.2517 57.1934 39.1363 57.4676 38.9334 57.6704C38.7305 57.8733 38.4562 57.9888 38.1692 57.9921H38.1674ZM12.5963 25.9357V31.9522C10.6228 32.1496 8.84584 33.2351 8.352 35.405C8.25323 35.8984 7.95692 36.3909 7.36431 36.4905L1.836 35.7998C1.44184 35.7011 0.849228 35.405 1.04677 34.6156C2.23107 28.4045 7.56 26.228 12.6 25.9357H12.5963ZM12.5963 38.7582V43.2956C10.2277 43.9854 8.352 45.4646 8.352 48.6205C8.352 51.0828 9.63507 52.7613 11.8043 52.7631C12.0997 52.7631 12.396 52.6654 12.5926 52.6654V57.8925C11.2699 58.2266 9.91018 58.3924 8.54584 58.3859C3.80677 58.3859 0.0553818 55.4274 0.0553818 49.6063C0.0553818 44.9713 2.52369 41.8145 6.1763 40.3352C8.05569 39.4435 10.3292 39.0561 12.6 38.7582H12.5963Z" fill="#D4D4D4"/>
</svg>
