<svg width="628" height="313" viewBox="0 0 628 313" fill="none" xmlns="http://www.w3.org/2000/svg">
<path d="M2 216H626.5" stroke="#F7F7F7" stroke-width="2" stroke-linecap="round" stroke-dasharray="4 4"/>
<path d="M2 146H626.5" stroke="#F7F7F7" stroke-width="2" stroke-linecap="round" stroke-dasharray="4 4"/>
<path d="M2 76H626.5" stroke="#F7F7F7" stroke-width="2" stroke-linecap="round" stroke-dasharray="4 4"/>
<path d="M2 6H626.5" stroke="#F7F7F7" stroke-width="2" stroke-linecap="round" stroke-dasharray="4 4"/>
<path d="M110 3V287" stroke="#F6F6F6" stroke-width="2" stroke-linecap="round"/>
<path d="M205 3V287" stroke="#F6F6F6" stroke-width="2" stroke-linecap="round"/>
<path d="M15 4V288" stroke="#F6F6F6" stroke-width="2" stroke-linecap="round" stroke-dasharray="4 4"/>
<path d="M300 1V285" stroke="#F6F6F6" stroke-width="2" stroke-linecap="round"/>
<path d="M395 1V285" stroke="#F6F6F6" stroke-width="2" stroke-linecap="round"/>
<path d="M490 1V285" stroke="#F6F6F6" stroke-width="2" stroke-linecap="round"/>
<path d="M95.7074 310V308.67L98.8139 305.794C99.0781 305.538 99.2997 305.308 99.4787 305.104C99.6605 304.899 99.7983 304.699 99.892 304.503C99.9858 304.304 100.033 304.089 100.033 303.859C100.033 303.604 99.9744 303.384 99.858 303.199C99.7415 303.011 99.5824 302.868 99.3807 302.768C99.179 302.666 98.9503 302.615 98.6946 302.615C98.4276 302.615 98.1946 302.669 97.9957 302.777C97.7969 302.885 97.6435 303.04 97.5355 303.241C97.4276 303.443 97.3736 303.683 97.3736 303.962H95.6222C95.6222 303.391 95.7514 302.895 96.0099 302.474C96.2685 302.054 96.6307 301.729 97.0966 301.499C97.5625 301.268 98.0994 301.153 98.7074 301.153C99.3324 301.153 99.8764 301.264 100.339 301.486C100.805 301.705 101.168 302.009 101.426 302.398C101.685 302.787 101.814 303.233 101.814 303.736C101.814 304.065 101.749 304.391 101.618 304.712C101.49 305.033 101.261 305.389 100.932 305.781C100.602 306.17 100.138 306.638 99.5384 307.183L98.2642 308.432V308.491H101.929V310H95.7074ZM106.688 310.192C105.955 310.189 105.324 310.009 104.796 309.651C104.27 309.293 103.865 308.774 103.581 308.095C103.3 307.416 103.161 306.599 103.164 305.645C103.164 304.693 103.304 303.882 103.586 303.212C103.87 302.541 104.275 302.031 104.8 301.682C105.328 301.33 105.958 301.153 106.688 301.153C107.418 301.153 108.046 301.33 108.571 301.682C109.1 302.034 109.506 302.545 109.79 303.216C110.074 303.884 110.215 304.693 110.212 305.645C110.212 306.602 110.07 307.42 109.786 308.099C109.505 308.778 109.101 309.297 108.576 309.655C108.05 310.013 107.421 310.192 106.688 310.192ZM106.688 308.662C107.188 308.662 107.587 308.411 107.885 307.908C108.184 307.405 108.331 306.651 108.328 305.645C108.328 304.983 108.26 304.432 108.124 303.991C107.99 303.551 107.8 303.22 107.553 302.999C107.309 302.777 107.02 302.666 106.688 302.666C106.191 302.666 105.793 302.915 105.495 303.412C105.196 303.909 105.046 304.653 105.043 305.645C105.043 306.315 105.11 306.875 105.243 307.324C105.38 307.77 105.571 308.105 105.819 308.33C106.066 308.551 106.355 308.662 106.688 308.662ZM115.325 301.273V310H113.479V303.024H113.428L111.43 304.277V302.641L113.59 301.273H115.325ZM117.744 310L121.362 302.841V302.781H117.147V301.273H123.271V302.803L119.649 310H117.744Z" fill="#646464"/>
<path d="M0.707386 310V308.67L3.81392 305.794C4.07813 305.538 4.29972 305.308 4.47869 305.104C4.66051 304.899 4.7983 304.699 4.89205 304.503C4.9858 304.304 5.03267 304.089 5.03267 303.859C5.03267 303.604 4.97443 303.384 4.85795 303.199C4.74148 303.011 4.58239 302.868 4.38068 302.768C4.17898 302.666 3.95028 302.615 3.6946 302.615C3.42756 302.615 3.1946 302.669 2.99574 302.777C2.79688 302.885 2.64347 303.04 2.53551 303.241C2.42756 303.443 2.37358 303.683 2.37358 303.962H0.622159C0.622159 303.391 0.75142 302.895 1.00994 302.474C1.26847 302.054 1.63068 301.729 2.09659 301.499C2.5625 301.268 3.09943 301.153 3.70739 301.153C4.33239 301.153 4.87642 301.264 5.33949 301.486C5.8054 301.705 6.16761 302.009 6.42614 302.398C6.68466 302.787 6.81392 303.233 6.81392 303.736C6.81392 304.065 6.74858 304.391 6.6179 304.712C6.49006 305.033 6.26136 305.389 5.93182 305.781C5.60227 306.17 5.13778 306.638 4.53835 307.183L3.2642 308.432V308.491H6.92898V310H0.707386ZM11.6879 310.192C10.9549 310.189 10.3242 310.009 9.79581 309.651C9.27024 309.293 8.86541 308.774 8.58132 308.095C8.30007 307.416 8.16087 306.599 8.16371 305.645C8.16371 304.693 8.30433 303.882 8.58558 303.212C8.86967 302.541 9.2745 302.031 9.80007 301.682C10.3285 301.33 10.9577 301.153 11.6879 301.153C12.418 301.153 13.0458 301.33 13.5714 301.682C14.0998 302.034 14.506 302.545 14.7901 303.216C15.0742 303.884 15.2148 304.693 15.212 305.645C15.212 306.602 15.07 307.42 14.7859 308.099C14.5046 308.778 14.1012 309.297 13.5756 309.655C13.0501 310.013 12.4208 310.192 11.6879 310.192ZM11.6879 308.662C12.1879 308.662 12.587 308.411 12.8853 307.908C13.1836 307.405 13.3313 306.651 13.3285 305.645C13.3285 304.983 13.2603 304.432 13.1239 303.991C12.9904 303.551 12.8001 303.22 12.5529 302.999C12.3086 302.777 12.0202 302.666 11.6879 302.666C11.1907 302.666 10.793 302.915 10.4947 303.412C10.1964 303.909 10.0458 304.653 10.043 305.645C10.043 306.315 10.1097 306.875 10.2433 307.324C10.3796 307.77 10.5714 308.105 10.8185 308.33C11.0657 308.551 11.3555 308.662 11.6879 308.662ZM20.3246 301.273V310H18.4794V303.024H18.4283L16.4297 304.277V302.641L18.5902 301.273H20.3246ZM25.7482 310.119C25.2994 310.116 24.8661 310.041 24.4485 309.893C24.0337 309.746 23.6616 309.506 23.332 309.173C23.0025 308.841 22.7411 308.401 22.5479 307.852C22.3576 307.304 22.2624 306.631 22.2624 305.832C22.2653 305.099 22.3491 304.445 22.5138 303.868C22.6815 303.288 22.9201 302.797 23.2298 302.393C23.5423 301.99 23.9158 301.683 24.3505 301.473C24.7852 301.26 25.2724 301.153 25.8121 301.153C26.3945 301.153 26.9087 301.267 27.3548 301.494C27.8008 301.719 28.1587 302.024 28.4286 302.411C28.7013 302.797 28.8661 303.23 28.9229 303.71H27.1033C27.0323 303.406 26.8832 303.168 26.6559 302.994C26.4286 302.821 26.1474 302.734 25.8121 302.734C25.244 302.734 24.8121 302.982 24.5167 303.476C24.2241 303.97 24.0749 304.642 24.0692 305.491H24.1289C24.2596 305.233 24.4357 305.013 24.6573 304.831C24.8817 304.646 25.136 304.506 25.4201 304.409C25.707 304.31 26.0096 304.26 26.3278 304.26C26.8448 304.26 27.305 304.382 27.7085 304.626C28.1119 304.868 28.43 305.2 28.663 305.624C28.896 306.047 29.0124 306.531 29.0124 307.077C29.0124 307.668 28.8746 308.193 28.5991 308.653C28.3263 309.114 27.9442 309.474 27.4528 309.736C26.9641 309.994 26.396 310.122 25.7482 310.119ZM25.7397 308.67C26.0238 308.67 26.2781 308.602 26.5025 308.466C26.7269 308.33 26.9031 308.145 27.0309 307.912C27.1587 307.679 27.2227 307.418 27.2227 307.128C27.2227 306.838 27.1587 306.578 27.0309 306.348C26.9059 306.118 26.7326 305.935 26.511 305.798C26.2894 305.662 26.0366 305.594 25.7525 305.594C25.5394 305.594 25.342 305.634 25.1602 305.713C24.9812 305.793 24.8235 305.903 24.6871 306.045C24.5536 306.187 24.4485 306.352 24.3718 306.54C24.2951 306.724 24.2567 306.922 24.2567 307.132C24.2567 307.413 24.3207 307.67 24.4485 307.903C24.5792 308.136 24.7553 308.322 24.9769 308.462C25.2013 308.601 25.4556 308.67 25.7397 308.67Z" fill="#646464"/>
<path d="M190.707 310V308.67L193.814 305.794C194.078 305.538 194.3 305.308 194.479 305.104C194.661 304.899 194.798 304.699 194.892 304.503C194.986 304.304 195.033 304.089 195.033 303.859C195.033 303.604 194.974 303.384 194.858 303.199C194.741 303.011 194.582 302.868 194.381 302.768C194.179 302.666 193.95 302.615 193.695 302.615C193.428 302.615 193.195 302.669 192.996 302.777C192.797 302.885 192.643 303.04 192.536 303.241C192.428 303.443 192.374 303.683 192.374 303.962H190.622C190.622 303.391 190.751 302.895 191.01 302.474C191.268 302.054 191.631 301.729 192.097 301.499C192.563 301.268 193.099 301.153 193.707 301.153C194.332 301.153 194.876 301.264 195.339 301.486C195.805 301.705 196.168 302.009 196.426 302.398C196.685 302.787 196.814 303.233 196.814 303.736C196.814 304.065 196.749 304.391 196.618 304.712C196.49 305.033 196.261 305.389 195.932 305.781C195.602 306.17 195.138 306.638 194.538 307.183L193.264 308.432V308.491H196.929V310H190.707ZM201.688 310.192C200.955 310.189 200.324 310.009 199.796 309.651C199.27 309.293 198.865 308.774 198.581 308.095C198.3 307.416 198.161 306.599 198.164 305.645C198.164 304.693 198.304 303.882 198.586 303.212C198.87 302.541 199.275 302.031 199.8 301.682C200.328 301.33 200.958 301.153 201.688 301.153C202.418 301.153 203.046 301.33 203.571 301.682C204.1 302.034 204.506 302.545 204.79 303.216C205.074 303.884 205.215 304.693 205.212 305.645C205.212 306.602 205.07 307.42 204.786 308.099C204.505 308.778 204.101 309.297 203.576 309.655C203.05 310.013 202.421 310.192 201.688 310.192ZM201.688 308.662C202.188 308.662 202.587 308.411 202.885 307.908C203.184 307.405 203.331 306.651 203.328 305.645C203.328 304.983 203.26 304.432 203.124 303.991C202.99 303.551 202.8 303.22 202.553 302.999C202.309 302.777 202.02 302.666 201.688 302.666C201.191 302.666 200.793 302.915 200.495 303.412C200.196 303.909 200.046 304.653 200.043 305.645C200.043 306.315 200.11 306.875 200.243 307.324C200.38 307.77 200.571 308.105 200.819 308.33C201.066 308.551 201.355 308.662 201.688 308.662ZM210.325 301.273V310H208.479V303.024H208.428L206.43 304.277V302.641L208.59 301.273H210.325ZM215.654 310.119C214.998 310.119 214.414 310.013 213.903 309.8C213.395 309.584 212.995 309.29 212.706 308.918C212.416 308.545 212.271 308.124 212.271 307.652C212.271 307.288 212.353 306.955 212.518 306.651C212.686 306.344 212.913 306.089 213.2 305.888C213.487 305.683 213.808 305.553 214.163 305.496V305.436C213.697 305.342 213.319 305.116 213.029 304.759C212.74 304.398 212.595 303.979 212.595 303.501C212.595 303.05 212.727 302.648 212.991 302.295C213.255 301.94 213.618 301.662 214.078 301.46C214.541 301.256 215.066 301.153 215.654 301.153C216.243 301.153 216.767 301.256 217.227 301.46C217.69 301.665 218.054 301.945 218.318 302.3C218.582 302.652 218.716 303.053 218.718 303.501C218.716 303.982 218.568 304.401 218.275 304.759C217.983 305.116 217.608 305.342 217.15 305.436V305.496C217.5 305.553 217.816 305.683 218.1 305.888C218.387 306.089 218.615 306.344 218.782 306.651C218.953 306.955 219.039 307.288 219.042 307.652C219.039 308.124 218.893 308.545 218.603 308.918C218.314 309.29 217.913 309.584 217.402 309.8C216.893 310.013 216.311 310.119 215.654 310.119ZM215.654 308.764C215.947 308.764 216.203 308.712 216.422 308.607C216.64 308.499 216.811 308.351 216.933 308.163C217.058 307.973 217.12 307.754 217.12 307.507C217.12 307.254 217.056 307.031 216.929 306.838C216.801 306.642 216.627 306.489 216.409 306.378C216.19 306.264 215.939 306.207 215.654 306.207C215.373 306.207 215.122 306.264 214.9 306.378C214.679 306.489 214.504 306.642 214.376 306.838C214.251 307.031 214.189 307.254 214.189 307.507C214.189 307.754 214.25 307.973 214.372 308.163C214.494 308.351 214.666 308.499 214.887 308.607C215.109 308.712 215.365 308.764 215.654 308.764ZM215.654 304.865C215.899 304.865 216.116 304.815 216.306 304.716C216.497 304.616 216.646 304.479 216.754 304.303C216.862 304.126 216.916 303.923 216.916 303.693C216.916 303.466 216.862 303.267 216.754 303.097C216.646 302.923 216.498 302.788 216.311 302.692C216.123 302.592 215.904 302.543 215.654 302.543C215.407 302.543 215.189 302.592 214.998 302.692C214.808 302.788 214.659 302.923 214.551 303.097C214.446 303.267 214.393 303.466 214.393 303.693C214.393 303.923 214.447 304.126 214.555 304.303C214.663 304.479 214.812 304.616 215.002 304.716C215.193 304.815 215.41 304.865 215.654 304.865Z" fill="#646464"/>
<path d="M285.707 310V308.67L288.814 305.794C289.078 305.538 289.3 305.308 289.479 305.104C289.661 304.899 289.798 304.699 289.892 304.503C289.986 304.304 290.033 304.089 290.033 303.859C290.033 303.604 289.974 303.384 289.858 303.199C289.741 303.011 289.582 302.868 289.381 302.768C289.179 302.666 288.95 302.615 288.695 302.615C288.428 302.615 288.195 302.669 287.996 302.777C287.797 302.885 287.643 303.04 287.536 303.241C287.428 303.443 287.374 303.683 287.374 303.962H285.622C285.622 303.391 285.751 302.895 286.01 302.474C286.268 302.054 286.631 301.729 287.097 301.499C287.563 301.268 288.099 301.153 288.707 301.153C289.332 301.153 289.876 301.264 290.339 301.486C290.805 301.705 291.168 302.009 291.426 302.398C291.685 302.787 291.814 303.233 291.814 303.736C291.814 304.065 291.749 304.391 291.618 304.712C291.49 305.033 291.261 305.389 290.932 305.781C290.602 306.17 290.138 306.638 289.538 307.183L288.264 308.432V308.491H291.929V310H285.707ZM296.688 310.192C295.955 310.189 295.324 310.009 294.796 309.651C294.27 309.293 293.865 308.774 293.581 308.095C293.3 307.416 293.161 306.599 293.164 305.645C293.164 304.693 293.304 303.882 293.586 303.212C293.87 302.541 294.275 302.031 294.8 301.682C295.328 301.33 295.958 301.153 296.688 301.153C297.418 301.153 298.046 301.33 298.571 301.682C299.1 302.034 299.506 302.545 299.79 303.216C300.074 303.884 300.215 304.693 300.212 305.645C300.212 306.602 300.07 307.42 299.786 308.099C299.505 308.778 299.101 309.297 298.576 309.655C298.05 310.013 297.421 310.192 296.688 310.192ZM296.688 308.662C297.188 308.662 297.587 308.411 297.885 307.908C298.184 307.405 298.331 306.651 298.328 305.645C298.328 304.983 298.26 304.432 298.124 303.991C297.99 303.551 297.8 303.22 297.553 302.999C297.309 302.777 297.02 302.666 296.688 302.666C296.191 302.666 295.793 302.915 295.495 303.412C295.196 303.909 295.046 304.653 295.043 305.645C295.043 306.315 295.11 306.875 295.243 307.324C295.38 307.77 295.571 308.105 295.819 308.33C296.066 308.551 296.355 308.662 296.688 308.662ZM305.325 301.273V310H303.479V303.024H303.428L301.43 304.277V302.641L303.59 301.273H305.325ZM310.556 301.153C311.005 301.153 311.437 301.229 311.852 301.379C312.27 301.53 312.642 301.77 312.968 302.099C313.298 302.429 313.558 302.866 313.748 303.412C313.941 303.955 314.039 304.621 314.042 305.411C314.042 306.152 313.958 306.814 313.791 307.396C313.626 307.976 313.389 308.469 313.079 308.875C312.77 309.281 312.396 309.591 311.958 309.804C311.521 310.014 311.032 310.119 310.493 310.119C309.91 310.119 309.396 310.007 308.95 309.783C308.504 309.555 308.145 309.247 307.872 308.858C307.602 308.466 307.439 308.026 307.382 307.537H309.201C309.272 307.855 309.422 308.102 309.649 308.278C309.876 308.452 310.157 308.538 310.493 308.538C311.061 308.538 311.493 308.291 311.788 307.797C312.083 307.3 312.233 306.619 312.235 305.756H312.176C312.045 306.011 311.869 306.232 311.647 306.416C311.426 306.598 311.172 306.739 310.885 306.838C310.6 306.938 310.298 306.987 309.977 306.987C309.463 306.987 309.004 306.866 308.6 306.625C308.197 306.384 307.879 306.051 307.646 305.628C307.413 305.205 307.297 304.722 307.297 304.179C307.294 303.594 307.429 303.072 307.701 302.615C307.974 302.158 308.355 301.8 308.843 301.541C309.335 301.28 309.906 301.151 310.556 301.153ZM310.569 302.602C310.282 302.602 310.027 302.67 309.802 302.807C309.581 302.943 309.404 303.126 309.274 303.357C309.146 303.587 309.083 303.844 309.086 304.128C309.086 304.415 309.149 304.673 309.274 304.903C309.402 305.131 309.575 305.312 309.794 305.449C310.015 305.582 310.268 305.649 310.552 305.649C310.765 305.649 310.963 305.609 311.145 305.53C311.326 305.45 311.484 305.341 311.618 305.202C311.754 305.06 311.86 304.896 311.937 304.712C312.014 304.527 312.052 304.331 312.052 304.124C312.049 303.848 311.984 303.595 311.856 303.365C311.728 303.135 311.552 302.95 311.328 302.811C311.103 302.672 310.85 302.602 310.569 302.602Z" fill="#646464"/>
<path d="M380.707 310V308.67L383.814 305.794C384.078 305.538 384.3 305.308 384.479 305.104C384.661 304.899 384.798 304.699 384.892 304.503C384.986 304.304 385.033 304.089 385.033 303.859C385.033 303.604 384.974 303.384 384.858 303.199C384.741 303.011 384.582 302.868 384.381 302.768C384.179 302.666 383.95 302.615 383.695 302.615C383.428 302.615 383.195 302.669 382.996 302.777C382.797 302.885 382.643 303.04 382.536 303.241C382.428 303.443 382.374 303.683 382.374 303.962H380.622C380.622 303.391 380.751 302.895 381.01 302.474C381.268 302.054 381.631 301.729 382.097 301.499C382.563 301.268 383.099 301.153 383.707 301.153C384.332 301.153 384.876 301.264 385.339 301.486C385.805 301.705 386.168 302.009 386.426 302.398C386.685 302.787 386.814 303.233 386.814 303.736C386.814 304.065 386.749 304.391 386.618 304.712C386.49 305.033 386.261 305.389 385.932 305.781C385.602 306.17 385.138 306.638 384.538 307.183L383.264 308.432V308.491H386.929V310H380.707ZM391.688 310.192C390.955 310.189 390.324 310.009 389.796 309.651C389.27 309.293 388.865 308.774 388.581 308.095C388.3 307.416 388.161 306.599 388.164 305.645C388.164 304.693 388.304 303.882 388.586 303.212C388.87 302.541 389.275 302.031 389.8 301.682C390.328 301.33 390.958 301.153 391.688 301.153C392.418 301.153 393.046 301.33 393.571 301.682C394.1 302.034 394.506 302.545 394.79 303.216C395.074 303.884 395.215 304.693 395.212 305.645C395.212 306.602 395.07 307.42 394.786 308.099C394.505 308.778 394.101 309.297 393.576 309.655C393.05 310.013 392.421 310.192 391.688 310.192ZM391.688 308.662C392.188 308.662 392.587 308.411 392.885 307.908C393.184 307.405 393.331 306.651 393.328 305.645C393.328 304.983 393.26 304.432 393.124 303.991C392.99 303.551 392.8 303.22 392.553 302.999C392.309 302.777 392.02 302.666 391.688 302.666C391.191 302.666 390.793 302.915 390.495 303.412C390.196 303.909 390.046 304.653 390.043 305.645C390.043 306.315 390.11 306.875 390.243 307.324C390.38 307.77 390.571 308.105 390.819 308.33C391.066 308.551 391.355 308.662 391.688 308.662ZM396.528 310V308.67L399.634 305.794C399.898 305.538 400.12 305.308 400.299 305.104C400.481 304.899 400.619 304.699 400.712 304.503C400.806 304.304 400.853 304.089 400.853 303.859C400.853 303.604 400.795 303.384 400.678 303.199C400.562 303.011 400.403 302.868 400.201 302.768C399.999 302.666 399.771 302.615 399.515 302.615C399.248 302.615 399.015 302.669 398.816 302.777C398.617 302.885 398.464 303.04 398.356 303.241C398.248 303.443 398.194 303.683 398.194 303.962H396.442C396.442 303.391 396.572 302.895 396.83 302.474C397.089 302.054 397.451 301.729 397.917 301.499C398.383 301.268 398.92 301.153 399.528 301.153C400.153 301.153 400.697 301.264 401.16 301.486C401.626 301.705 401.988 302.009 402.246 302.398C402.505 302.787 402.634 303.233 402.634 303.736C402.634 304.065 402.569 304.391 402.438 304.712C402.31 305.033 402.082 305.389 401.752 305.781C401.423 306.17 400.958 306.638 400.359 307.183L399.085 308.432V308.491H402.749V310H396.528ZM407.508 310.192C406.775 310.189 406.145 310.009 405.616 309.651C405.091 309.293 404.686 308.774 404.402 308.095C404.12 307.416 403.981 306.599 403.984 305.645C403.984 304.693 404.125 303.882 404.406 303.212C404.69 302.541 405.095 302.031 405.62 301.682C406.149 301.33 406.778 301.153 407.508 301.153C408.238 301.153 408.866 301.33 409.392 301.682C409.92 302.034 410.326 302.545 410.61 303.216C410.895 303.884 411.035 304.693 411.032 305.645C411.032 306.602 410.89 307.42 410.606 308.099C410.325 308.778 409.922 309.297 409.396 309.655C408.87 310.013 408.241 310.192 407.508 310.192ZM407.508 308.662C408.008 308.662 408.407 308.411 408.706 307.908C409.004 307.405 409.152 306.651 409.149 305.645C409.149 304.983 409.081 304.432 408.944 303.991C408.811 303.551 408.62 303.22 408.373 302.999C408.129 302.777 407.841 302.666 407.508 302.666C407.011 302.666 406.613 302.915 406.315 303.412C406.017 303.909 405.866 304.653 405.863 305.645C405.863 306.315 405.93 306.875 406.064 307.324C406.2 307.77 406.392 308.105 406.639 308.33C406.886 308.551 407.176 308.662 407.508 308.662Z" fill="#646464"/>
<path d="M475.707 310V308.67L478.814 305.794C479.078 305.538 479.3 305.308 479.479 305.104C479.661 304.899 479.798 304.699 479.892 304.503C479.986 304.304 480.033 304.089 480.033 303.859C480.033 303.604 479.974 303.384 479.858 303.199C479.741 303.011 479.582 302.868 479.381 302.768C479.179 302.666 478.95 302.615 478.695 302.615C478.428 302.615 478.195 302.669 477.996 302.777C477.797 302.885 477.643 303.04 477.536 303.241C477.428 303.443 477.374 303.683 477.374 303.962H475.622C475.622 303.391 475.751 302.895 476.01 302.474C476.268 302.054 476.631 301.729 477.097 301.499C477.563 301.268 478.099 301.153 478.707 301.153C479.332 301.153 479.876 301.264 480.339 301.486C480.805 301.705 481.168 302.009 481.426 302.398C481.685 302.787 481.814 303.233 481.814 303.736C481.814 304.065 481.749 304.391 481.618 304.712C481.49 305.033 481.261 305.389 480.932 305.781C480.602 306.17 480.138 306.638 479.538 307.183L478.264 308.432V308.491H481.929V310H475.707ZM486.688 310.192C485.955 310.189 485.324 310.009 484.796 309.651C484.27 309.293 483.865 308.774 483.581 308.095C483.3 307.416 483.161 306.599 483.164 305.645C483.164 304.693 483.304 303.882 483.586 303.212C483.87 302.541 484.275 302.031 484.8 301.682C485.328 301.33 485.958 301.153 486.688 301.153C487.418 301.153 488.046 301.33 488.571 301.682C489.1 302.034 489.506 302.545 489.79 303.216C490.074 303.884 490.215 304.693 490.212 305.645C490.212 306.602 490.07 307.42 489.786 308.099C489.505 308.778 489.101 309.297 488.576 309.655C488.05 310.013 487.421 310.192 486.688 310.192ZM486.688 308.662C487.188 308.662 487.587 308.411 487.885 307.908C488.184 307.405 488.331 306.651 488.328 305.645C488.328 304.983 488.26 304.432 488.124 303.991C487.99 303.551 487.8 303.22 487.553 302.999C487.309 302.777 487.02 302.666 486.688 302.666C486.191 302.666 485.793 302.915 485.495 303.412C485.196 303.909 485.046 304.653 485.043 305.645C485.043 306.315 485.11 306.875 485.243 307.324C485.38 307.77 485.571 308.105 485.819 308.33C486.066 308.551 486.355 308.662 486.688 308.662ZM491.528 310V308.67L494.634 305.794C494.898 305.538 495.12 305.308 495.299 305.104C495.481 304.899 495.619 304.699 495.712 304.503C495.806 304.304 495.853 304.089 495.853 303.859C495.853 303.604 495.795 303.384 495.678 303.199C495.562 303.011 495.403 302.868 495.201 302.768C494.999 302.666 494.771 302.615 494.515 302.615C494.248 302.615 494.015 302.669 493.816 302.777C493.617 302.885 493.464 303.04 493.356 303.241C493.248 303.443 493.194 303.683 493.194 303.962H491.442C491.442 303.391 491.572 302.895 491.83 302.474C492.089 302.054 492.451 301.729 492.917 301.499C493.383 301.268 493.92 301.153 494.528 301.153C495.153 301.153 495.697 301.264 496.16 301.486C496.626 301.705 496.988 302.009 497.246 302.398C497.505 302.787 497.634 303.233 497.634 303.736C497.634 304.065 497.569 304.391 497.438 304.712C497.31 305.033 497.082 305.389 496.752 305.781C496.423 306.17 495.958 306.638 495.359 307.183L494.085 308.432V308.491H497.749V310H491.528ZM502.883 301.273V310H501.038V303.024H500.987L498.988 304.277V302.641L501.149 301.273H502.883Z" fill="#646464"/>
<path d="M585 1V285" stroke="#F6F6F6" stroke-width="2" stroke-linecap="round" stroke-dasharray="4 4"/>
<path d="M4 286H593.5" stroke="#F6F6F6" stroke-width="2" stroke-linecap="round"/>
<path d="M570.707 310V308.67L573.814 305.794C574.078 305.538 574.3 305.308 574.479 305.104C574.661 304.899 574.798 304.699 574.892 304.503C574.986 304.304 575.033 304.089 575.033 303.859C575.033 303.604 574.974 303.384 574.858 303.199C574.741 303.011 574.582 302.868 574.381 302.768C574.179 302.666 573.95 302.615 573.695 302.615C573.428 302.615 573.195 302.669 572.996 302.777C572.797 302.885 572.643 303.04 572.536 303.241C572.428 303.443 572.374 303.683 572.374 303.962H570.622C570.622 303.391 570.751 302.895 571.01 302.474C571.268 302.054 571.631 301.729 572.097 301.499C572.563 301.268 573.099 301.153 573.707 301.153C574.332 301.153 574.876 301.264 575.339 301.486C575.805 301.705 576.168 302.009 576.426 302.398C576.685 302.787 576.814 303.233 576.814 303.736C576.814 304.065 576.749 304.391 576.618 304.712C576.49 305.033 576.261 305.389 575.932 305.781C575.602 306.17 575.138 306.638 574.538 307.183L573.264 308.432V308.491H576.929V310H570.707ZM581.688 310.192C580.955 310.189 580.324 310.009 579.796 309.651C579.27 309.293 578.865 308.774 578.581 308.095C578.3 307.416 578.161 306.599 578.164 305.645C578.164 304.693 578.304 303.882 578.586 303.212C578.87 302.541 579.275 302.031 579.8 301.682C580.328 301.33 580.958 301.153 581.688 301.153C582.418 301.153 583.046 301.33 583.571 301.682C584.1 302.034 584.506 302.545 584.79 303.216C585.074 303.884 585.215 304.693 585.212 305.645C585.212 306.602 585.07 307.42 584.786 308.099C584.505 308.778 584.101 309.297 583.576 309.655C583.05 310.013 582.421 310.192 581.688 310.192ZM581.688 308.662C582.188 308.662 582.587 308.411 582.885 307.908C583.184 307.405 583.331 306.651 583.328 305.645C583.328 304.983 583.26 304.432 583.124 303.991C582.99 303.551 582.8 303.22 582.553 302.999C582.309 302.777 582.02 302.666 581.688 302.666C581.191 302.666 580.793 302.915 580.495 303.412C580.196 303.909 580.046 304.653 580.043 305.645C580.043 306.315 580.11 306.875 580.243 307.324C580.38 307.77 580.571 308.105 580.819 308.33C581.066 308.551 581.355 308.662 581.688 308.662ZM586.528 310V308.67L589.634 305.794C589.898 305.538 590.12 305.308 590.299 305.104C590.481 304.899 590.619 304.699 590.712 304.503C590.806 304.304 590.853 304.089 590.853 303.859C590.853 303.604 590.795 303.384 590.678 303.199C590.562 303.011 590.403 302.868 590.201 302.768C589.999 302.666 589.771 302.615 589.515 302.615C589.248 302.615 589.015 302.669 588.816 302.777C588.617 302.885 588.464 303.04 588.356 303.241C588.248 303.443 588.194 303.683 588.194 303.962H586.442C586.442 303.391 586.572 302.895 586.83 302.474C587.089 302.054 587.451 301.729 587.917 301.499C588.383 301.268 588.92 301.153 589.528 301.153C590.153 301.153 590.697 301.264 591.16 301.486C591.626 301.705 591.988 302.009 592.246 302.398C592.505 302.787 592.634 303.233 592.634 303.736C592.634 304.065 592.569 304.391 592.438 304.712C592.31 305.033 592.082 305.389 591.752 305.781C591.423 306.17 590.958 306.638 590.359 307.183L589.085 308.432V308.491H592.749V310H586.528ZM594.086 310V308.67L597.193 305.794C597.457 305.538 597.679 305.308 597.858 305.104C598.039 304.899 598.177 304.699 598.271 304.503C598.365 304.304 598.412 304.089 598.412 303.859C598.412 303.604 598.353 303.384 598.237 303.199C598.12 303.011 597.961 302.868 597.76 302.768C597.558 302.666 597.329 302.615 597.074 302.615C596.806 302.615 596.574 302.669 596.375 302.777C596.176 302.885 596.022 303.04 595.914 303.241C595.806 303.443 595.752 303.683 595.752 303.962H594.001C594.001 303.391 594.13 302.895 594.389 302.474C594.647 302.054 595.01 301.729 595.475 301.499C595.941 301.268 596.478 301.153 597.086 301.153C597.711 301.153 598.255 301.264 598.718 301.486C599.184 301.705 599.547 302.009 599.805 302.398C600.064 302.787 600.193 303.233 600.193 303.736C600.193 304.065 600.127 304.391 599.997 304.712C599.869 305.033 599.64 305.389 599.311 305.781C598.981 306.17 598.517 306.638 597.917 307.183L596.643 308.432V308.491H600.308V310H594.086Z" fill="#646464"/>
<path d="M41.5862 161.687L15.5 172V286H585V127H530.027C519.967 127 510.197 130.371 502.277 136.575L474.089 158.655C462.366 167.838 446.108 168.576 433.601 160.492L433.01 160.11C421.252 152.51 406.031 152.923 394.702 161.148C383.926 168.972 369.566 169.76 357.999 163.161L329.885 147.125C315.222 138.761 297.111 139.306 282.979 148.538L260.788 163.034C250.102 170.014 236.956 172.128 224.621 168.85L184.354 158.15C176.593 156.088 168.421 156.14 160.687 158.301L119.446 169.824C109.762 172.53 99.4504 171.914 90.157 168.076L75.3101 161.943C64.5271 157.489 52.4358 157.397 41.5862 161.687Z" fill="url(#paint0_linear_5_213)"/>
<path d="M15 172L41.6559 161.583C52.4652 157.358 64.4885 157.474 75.2149 161.904L90.157 168.076C99.4504 171.914 109.762 172.53 119.446 169.824L160.687 158.301C168.421 156.14 176.593 156.088 184.354 158.15L224.621 168.85C236.956 172.128 250.102 170.014 260.788 163.034L282.979 148.538C297.111 139.306 315.222 138.761 329.885 147.125L357.999 163.161C369.566 169.76 383.926 168.972 394.702 161.148V161.148C406.031 152.923 421.252 152.51 433.01 160.11L433.601 160.492C446.108 168.576 462.366 167.838 474.089 158.655L502.277 136.575C510.197 130.371 519.967 127 530.027 127H585" stroke="#FF994F" stroke-width="2" stroke-linecap="round"/>
<g filter="url(#filter0_d_5_213)">
<circle cx="491" cy="146" r="9" fill="white"/>
</g>
<circle cx="491" cy="146" r="6" fill="#FF994F"/>
<path d="M474.5 96C469.806 96 466 99.3871 466 103.565V111.13C466 115.309 469.806 118.696 474.5 118.696H483.944L491.028 125L498.111 118.696H508.5C513.194 118.696 517 115.309 517 111.13V103.565C517 99.3871 513.194 96 508.5 96H474.5Z" fill="#FF994F"/>
<path d="M476.707 112V110.67L479.814 107.794C480.078 107.538 480.3 107.308 480.479 107.104C480.661 106.899 480.798 106.699 480.892 106.503C480.986 106.304 481.033 106.089 481.033 105.859C481.033 105.604 480.974 105.384 480.858 105.199C480.741 105.011 480.582 104.868 480.381 104.768C480.179 104.666 479.95 104.615 479.695 104.615C479.428 104.615 479.195 104.669 478.996 104.777C478.797 104.885 478.643 105.04 478.536 105.241C478.428 105.443 478.374 105.683 478.374 105.962H476.622C476.622 105.391 476.751 104.895 477.01 104.474C477.268 104.054 477.631 103.729 478.097 103.499C478.563 103.268 479.099 103.153 479.707 103.153C480.332 103.153 480.876 103.264 481.339 103.486C481.805 103.705 482.168 104.009 482.426 104.398C482.685 104.787 482.814 105.233 482.814 105.736C482.814 106.065 482.749 106.391 482.618 106.712C482.49 107.033 482.261 107.389 481.932 107.781C481.602 108.17 481.138 108.638 480.538 109.183L479.264 110.432V110.491H482.929V112H476.707ZM487.688 112.192C486.955 112.189 486.324 112.009 485.796 111.651C485.27 111.293 484.865 110.774 484.581 110.095C484.3 109.416 484.161 108.599 484.164 107.645C484.164 106.693 484.304 105.882 484.586 105.212C484.87 104.541 485.275 104.031 485.8 103.682C486.328 103.33 486.958 103.153 487.688 103.153C488.418 103.153 489.046 103.33 489.571 103.682C490.1 104.034 490.506 104.545 490.79 105.216C491.074 105.884 491.215 106.693 491.212 107.645C491.212 108.602 491.07 109.42 490.786 110.099C490.505 110.778 490.101 111.297 489.576 111.655C489.05 112.013 488.421 112.192 487.688 112.192ZM487.688 110.662C488.188 110.662 488.587 110.411 488.885 109.908C489.184 109.405 489.331 108.651 489.328 107.645C489.328 106.983 489.26 106.432 489.124 105.991C488.99 105.551 488.8 105.22 488.553 104.999C488.309 104.777 488.02 104.666 487.688 104.666C487.191 104.666 486.793 104.915 486.495 105.412C486.196 105.909 486.046 106.653 486.043 107.645C486.043 108.315 486.11 108.875 486.243 109.324C486.38 109.77 486.571 110.105 486.819 110.33C487.066 110.551 487.355 110.662 487.688 110.662ZM492.528 112V110.67L495.634 107.794C495.898 107.538 496.12 107.308 496.299 107.104C496.481 106.899 496.619 106.699 496.712 106.503C496.806 106.304 496.853 106.089 496.853 105.859C496.853 105.604 496.795 105.384 496.678 105.199C496.562 105.011 496.403 104.868 496.201 104.768C495.999 104.666 495.771 104.615 495.515 104.615C495.248 104.615 495.015 104.669 494.816 104.777C494.617 104.885 494.464 105.04 494.356 105.241C494.248 105.443 494.194 105.683 494.194 105.962H492.442C492.442 105.391 492.572 104.895 492.83 104.474C493.089 104.054 493.451 103.729 493.917 103.499C494.383 103.268 494.92 103.153 495.528 103.153C496.153 103.153 496.697 103.264 497.16 103.486C497.626 103.705 497.988 104.009 498.246 104.398C498.505 104.787 498.634 105.233 498.634 105.736C498.634 106.065 498.569 106.391 498.438 106.712C498.31 107.033 498.082 107.389 497.752 107.781C497.423 108.17 496.958 108.638 496.359 109.183L495.085 110.432V110.491H498.749V112H492.528ZM503.883 103.273V112H502.038V105.024H501.987L499.988 106.277V104.641L502.149 103.273H503.883Z" fill="white"/>
<defs>
<filter id="filter0_d_5_213" x="478" y="133" width="26" height="26" filterUnits="userSpaceOnUse" color-interpolation-filters="sRGB">
<feFlood flood-opacity="0" result="BackgroundImageFix"/>
<feColorMatrix in="SourceAlpha" type="matrix" values="0 0 0 0 0 0 0 0 0 0 0 0 0 0 0 0 0 0 127 0" result="hardAlpha"/>
<feOffset/>
<feGaussianBlur stdDeviation="2"/>
<feComposite in2="hardAlpha" operator="out"/>
<feColorMatrix type="matrix" values="0 0 0 0 1 0 0 0 0 0.6 0 0 0 0 0.309804 0 0 0 0.29 0"/>
<feBlend mode="normal" in2="BackgroundImageFix" result="effect1_dropShadow_5_213"/>
<feBlend mode="normal" in="SourceGraphic" in2="effect1_dropShadow_5_213" result="shape"/>
</filter>
<linearGradient id="paint0_linear_5_213" x1="300.25" y1="127" x2="300.25" y2="286" gradientUnits="userSpaceOnUse">
<stop stop-color="#FFEACA" stop-opacity="0.78"/>
<stop offset="1" stop-color="#FFEACA" stop-opacity="0"/>
</linearGradient>
</defs>
</svg>
