<svg width="542" height="424" viewBox="0 0 542 424" fill="none" xmlns="http://www.w3.org/2000/svg">
<path d="M541 229C541 282.455 511.613 330.932 463.936 366.081C416.26 401.23 350.348 423 277.5 423C204.652 423 138.74 401.23 91.0637 366.081C43.3871 330.932 14 282.455 14 229C14 175.545 43.3871 127.068 91.0637 91.9191C138.74 56.7703 204.652 35 277.5 35C350.348 35 416.26 56.7703 463.936 91.9191C511.613 127.068 541 175.545 541 229Z" stroke="#FFE486" stroke-width="2"/>
<ellipse cx="267" cy="218" rx="264" ry="195" fill="#FFF4E3"/>
<path d="M527.5 203C527.5 256.652 498.059 305.265 450.379 340.484C402.699 375.702 336.806 397.5 264 397.5C191.194 397.5 125.301 375.702 77.6209 340.484C29.9406 305.265 0.5 256.652 0.5 203C0.5 149.348 29.9406 100.735 77.6209 65.5164C125.301 30.2981 191.194 8.5 264 8.5C336.806 8.5 402.699 30.2981 450.379 65.5164C498.059 100.735 527.5 149.348 527.5 203Z" stroke="#B4FF86"/>
</svg>
