<svg width="165" height="83" viewBox="0 0 165 83" fill="none" xmlns="http://www.w3.org/2000/svg">
<path d="M19.6748 31.5337C17.9118 31.5337 17.4117 32.3204 17.4117 34.053V36.9161H22.0992L21.6387 41.5502H17.4117V55.6001H11.8031V41.5502H8V36.9161H11.784V34.1341C11.784 29.4587 13.6467 27 18.874 27C19.996 27 21.338 27.0812 22.1388 27.2022V31.5559L19.6748 31.5337ZM22.4615 46.8336C22.4615 52.0536 24.9255 55.9631 30.053 55.9631C32.8573 55.9631 34.6202 54.5522 35.4005 52.7606V55.5823H40.7891V36.9131H35.4005V39.7762C34.5792 37.9831 32.8778 36.5117 30.053 36.5117C24.9196 36.5117 22.4615 40.4418 22.4615 45.6412V46.8336ZM28.0906 45.56C28.0906 42.7781 29.1114 40.9259 31.7162 40.9259C34.0189 40.9259 35.182 42.6187 35.182 45.2796V47.1539C35.182 49.8148 34.0204 51.5076 31.7162 51.5076C29.1129 51.5076 28.0906 49.6731 28.0906 46.8735V45.56ZM52.4873 36.5102C45.9137 36.5132 42.907 40.0788 42.907 45.8035V46.6698C42.907 52.3931 45.9107 55.9616 52.502 55.9616C54.702 55.9616 56.748 55.4982 57.8906 54.7116L56.6483 50.7003C55.4765 51.2578 54.1985 51.5534 52.9024 51.5666C49.8576 51.5666 48.5361 49.7927 48.5361 46.7894V45.7017C48.5361 42.6792 49.8561 40.9244 52.9024 40.9244C54.3691 40.9244 55.7874 41.348 56.6483 41.7907L57.8906 37.7794C56.7495 36.9736 54.6859 36.5102 52.502 36.5102H52.4873ZM58.6107 46.9502C58.6107 52.4329 61.2551 56 68.3451 56C71.0291 56 74.0739 55.4156 75.5553 54.6275L74.5345 50.7372C72.8918 51.4426 70.6683 51.8662 68.5651 51.8662C65.441 51.8662 64.319 50.7372 64.1988 48.1766H76.0158V45.1955C76.0158 40.0301 73.4931 36.4881 67.7232 36.4881C61.5925 36.4881 58.6092 39.9755 58.6092 45.2752V46.962L58.6107 46.9502ZM64.2178 44.524C64.2178 42.0047 65.2005 40.4123 67.7379 40.4123C70.2019 40.4123 71.0027 42.0254 71.0027 44.0606V44.524H64.2178ZM96.8471 45.653C96.8471 40.433 94.3434 36.5235 89.2159 36.5235C86.6126 36.5235 84.81 37.8518 83.9887 39.5047V27.0295L78.3801 27.5313V55.572H83.6895V52.7502C84.4712 54.5434 86.4131 55.9749 89.2188 55.9749C94.3522 55.9749 96.85 52.0448 96.85 46.8454L96.8471 45.653ZM91.2414 46.9266C91.2414 49.5462 90.2206 51.5223 87.5366 51.5223C85.2339 51.5223 83.9916 49.8694 83.9916 47.2085V45.253C83.9916 42.5921 85.2339 40.9392 87.5366 40.9392C90.2206 40.9392 91.2414 42.8947 91.2414 45.5349V46.9266ZM98.7332 46.7052C98.7332 52.0861 101.778 55.9557 107.967 55.9557C114.157 55.9557 117.202 52.0654 117.202 46.7052V45.7578C117.202 40.3769 114.157 36.5073 107.967 36.5073C101.778 36.5073 98.7332 40.3976 98.7332 45.7578V46.7052ZM111.593 47.089C111.593 49.5683 110.572 51.5223 107.967 51.5223C105.363 51.5223 104.342 49.5669 104.342 47.089V45.3563C104.342 42.8769 105.363 40.923 107.967 40.923C110.572 40.923 111.593 42.8784 111.593 45.3563V47.089ZM119.064 46.7052C119.064 52.0861 122.109 55.9557 128.299 55.9557C134.488 55.9557 137.533 52.0654 137.533 46.7052V45.7578C137.533 40.3769 134.488 36.5073 128.299 36.5073C122.109 36.5073 119.064 40.3976 119.064 45.7578V46.7052ZM131.942 47.089C131.942 49.5683 130.921 51.5223 128.316 51.5223C125.711 51.5223 124.689 49.6038 124.689 47.0949V45.3622C124.689 42.8829 125.71 40.9289 128.315 40.9289C130.919 40.9289 131.94 42.8843 131.94 45.3622L131.942 47.089ZM145.262 27.0148L139.654 27.5165V55.5218H145.262V46.3924L151.031 55.5218H157L150.951 46.0765L156.759 36.8674H150.79L145.261 45.7755" fill="#D4D4D4"/>
</svg>
