<svg width="165" height="83" viewBox="0 0 165 83" fill="none" xmlns="http://www.w3.org/2000/svg">
<path d="M44.5184 36.5836H27.3034V41.7227H39.5134C38.9084 48.916 32.9505 52.0036 27.324 52.0036C25.5416 52.0115 23.7754 51.6621 22.1287 50.9757C20.4819 50.2894 18.9876 49.2798 17.7329 48.0061C16.4782 46.7323 15.4883 45.2199 14.821 43.557C14.1537 41.8941 13.8223 40.1142 13.8463 38.3211C13.8463 30.5412 19.833 24.5514 27.3405 24.5514C33.132 24.5514 36.5448 28.2656 36.5448 28.2656L40.1198 24.5389C40.1198 24.5389 35.5273 19.3971 27.1535 19.3971C16.4904 19.3971 8.24176 28.451 8.24176 38.2298C8.24176 47.8121 16.0009 57.1566 27.423 57.1566C37.4701 57.1566 44.825 50.2316 44.825 39.9922C44.825 37.8314 44.5129 36.5836 44.5129 36.5836H44.5184Z" fill="#D4D4D4"/>
<path d="M58.6217 32.8611C51.557 32.8611 46.4942 38.418 46.4942 44.8961C46.4942 51.4725 51.403 57.1317 58.7042 57.1317C65.3125 57.1317 70.7259 52.0507 70.7259 45.0372C70.7259 37.0139 64.4284 32.8597 58.6217 32.8597V32.8611ZM58.6905 37.6281C62.1637 37.6281 65.4555 40.4542 65.4555 45.0068C65.4555 49.4611 62.1775 52.3689 58.674 52.3689C54.824 52.3689 51.799 49.2675 51.799 44.9708C51.799 40.7655 54.7965 37.6281 58.7015 37.6281H58.6905Z" fill="#D4D4D4"/>
<path d="M84.9956 32.8611C77.9309 32.8611 72.8681 38.418 72.8681 44.8961C72.8681 51.4725 77.7769 57.1317 85.0781 57.1317C91.6864 57.1317 97.0997 52.0507 97.0997 45.0372C97.0997 37.0139 90.8022 32.8597 84.9956 32.8597V32.8611ZM85.0644 37.6281C88.5376 37.6281 91.8294 40.4542 91.8294 45.0068C91.8294 49.4611 88.5514 52.3689 85.0479 52.3689C81.1979 52.3689 78.1729 49.2675 78.1729 44.9708C78.1729 40.7655 81.1704 37.6281 85.0754 37.6281H85.0644Z" fill="#D4D4D4"/>
<path d="M110.864 32.8749C104.379 32.8749 99.2833 38.588 99.2833 45.0012C99.2833 52.3052 105.192 57.1496 110.751 57.1496C114.188 57.1496 116.017 55.776 117.351 54.2003V56.5935C117.351 60.7809 114.824 63.2888 111.009 63.2888C107.324 63.2888 105.476 60.5319 104.822 58.9687L100.185 60.9054C101.83 64.4052 105.141 68.053 111.048 68.053C117.51 68.053 122.408 63.9681 122.408 55.3997V33.6039H117.37V35.6595C115.816 33.9719 113.688 32.8749 110.866 32.8749H110.864ZM111.331 37.6335C114.51 37.6335 117.774 40.3642 117.774 45.0275C117.774 49.7681 114.516 52.3799 111.261 52.3799C107.804 52.3799 104.588 49.5579 104.588 45.0717C104.588 40.4127 107.929 37.6322 111.331 37.6322V37.6335Z" fill="#D4D4D4"/>
<path d="M144.925 32.8458C138.809 32.8458 133.673 37.7428 133.673 44.9638C133.673 52.6081 139.398 57.1413 145.498 57.1413C150.602 57.1413 153.748 54.3331 155.605 51.8155L151.434 49.0239C150.352 50.7116 148.543 52.3647 145.525 52.3647C142.134 52.3647 140.575 50.4972 139.608 48.685L155.782 41.9343L154.957 39.9562C153.395 36.0828 149.75 32.8458 144.926 32.8458H144.925ZM145.135 37.5132C147.34 37.5132 148.925 38.6918 149.599 40.1056L138.797 44.647C138.329 41.1306 141.643 37.5132 145.122 37.5132H145.135Z" fill="#D4D4D4"/>
<path d="M125.95 56.422H131.263V20.6532H125.95V56.422Z" fill="#D4D4D4"/>
</svg>
