<svg width="33" height="33" viewBox="0 0 33 33" fill="none" xmlns="http://www.w3.org/2000/svg">
<ellipse cx="16.3127" cy="16.4211" rx="16.3127" ry="16.4211" fill="#FF8C39"/>
<path d="M30.6225 13.1836H26.734C26.663 12.6805 26.518 12.2336 26.299 11.843C26.08 11.4465 25.7989 11.1091 25.4556 10.8309C25.1123 10.5528 24.7158 10.3397 24.266 10.1917C23.8221 10.0438 23.3397 9.96979 22.8189 9.96979C21.8778 9.96979 21.0581 10.2036 20.3597 10.6711C19.6613 11.1328 19.1198 11.8075 18.7351 12.6953C18.3504 13.5772 18.158 14.6484 18.158 15.9091C18.158 17.2052 18.3504 18.2942 18.7351 19.1761C19.1257 20.058 19.6702 20.7238 20.3686 21.1736C21.067 21.6234 21.8749 21.8483 22.7923 21.8483C23.3072 21.8483 23.7836 21.7803 24.2216 21.6442C24.6655 21.508 25.0591 21.3098 25.4023 21.0493C25.7456 20.783 26.0297 20.4604 26.2546 20.0817C26.4854 19.7029 26.6452 19.2708 26.734 18.7855L30.6225 18.8032C30.5219 19.6378 30.2704 20.4427 29.8679 21.218C29.4714 21.9874 28.9357 22.6769 28.261 23.2866C27.5922 23.8902 26.7932 24.3697 25.864 24.7248C24.9407 25.074 23.8961 25.2486 22.7301 25.2486C21.1084 25.2486 19.6584 24.8816 18.38 24.1477C17.1075 23.4138 16.1013 22.3514 15.3615 20.9606C14.6276 19.5697 14.2607 17.8859 14.2607 15.9091C14.2607 13.9264 14.6335 12.2396 15.3793 10.8487C16.125 9.45784 17.1371 8.39842 18.4155 7.67043C19.6939 6.93653 21.1321 6.56958 22.7301 6.56958C23.7836 6.56958 24.7602 6.71754 25.6598 7.01347C26.5653 7.3094 27.3673 7.74146 28.0657 8.30964C28.7641 8.8719 29.3323 9.56141 29.7702 10.3782C30.2141 11.1949 30.4982 12.1301 30.6225 13.1836Z" fill="white"/>
</svg>
