<svg width="166" height="83" viewBox="0 0 166 83" fill="none" xmlns="http://www.w3.org/2000/svg">
<path d="M32.0103 58.0585C29.8938 58.432 27.7414 58.5426 25.5142 58.8387L18.722 38.9394V59.6908L12.6713 60.5208V22.493H18.3153L26.0371 44.0633V22.493H32.0131L32.0103 58.0585ZM43.705 36.4148L51.6495 36.3042V42.2442L43.705 42.3549V51.1902L54.2114 50.5594V56.2767L37.7636 57.5771V22.493H54.2114V28.433H43.705V36.4148ZM76.3005 28.433H70.135V55.7566L64.195 55.8313V28.4316H58.0322V22.493H76.2977L76.3005 28.433ZM85.9534 36.0067H94.0833V41.9468H85.9534V55.4232H80.1227V22.493H96.7185V28.433H85.952L85.9534 36.0067ZM106.371 50.2246L116.47 50.7448V56.6101L100.43 55.8313V22.493H106.37L106.371 50.2246ZM121.482 57.0168L127.31 57.4622V22.493H121.482V57.0168ZM153.334 22.4916L145.798 40.5717L153.334 60.5056L146.653 59.4293L142.384 48.4401L138.04 58.5385L131.655 57.7583L139.302 40.3463L132.396 22.4874H138.782L142.68 32.4751L146.838 22.4874L153.334 22.4916Z" fill="#D4D4D4"/>
</svg>
