<svg width="129" height="80" viewBox="0 0 129 80" fill="none" xmlns="http://www.w3.org/2000/svg">
<circle cx="96.1343" cy="33.6134" r="32.2689" fill="#DCC542"/>
<circle cx="94.79" cy="32.2689" r="32.2689" fill="#FFED88"/>
<circle cx="94.1178" cy="32.9412" r="28.9076" fill="#FFB864"/>
<circle cx="94.79" cy="32.2688" r="28.9076" fill="#FFAF50"/>
<path d="M93.8195 46.7067V17.3713H95.6988V46.7067H93.8195ZM98.8043 27.0543C98.7126 26.1299 98.3192 25.4118 97.624 24.8999C96.9288 24.3881 95.9853 24.1322 94.7936 24.1322C93.9838 24.1322 93.3001 24.2468 92.7424 24.476C92.1847 24.6975 91.7569 25.0069 91.459 25.4041C91.1687 25.8014 91.0235 26.2521 91.0235 26.7563C91.0082 27.1765 91.0961 27.5432 91.2871 27.8564C91.4857 28.1696 91.7569 28.4408 92.1007 28.67C92.4444 28.8915 92.8417 29.0863 93.2924 29.2544C93.7431 29.4148 94.2244 29.5524 94.7363 29.6669L96.8447 30.1711C97.8684 30.4003 98.8081 30.7059 99.6637 31.0879C100.519 31.4698 101.26 31.9397 101.887 32.4973C102.513 33.055 102.998 33.712 103.342 34.4683C103.693 35.2246 103.873 36.0917 103.881 37.0695C103.873 38.5058 103.506 39.751 102.781 40.8052C102.062 41.8518 101.024 42.6654 99.6637 43.246C98.3115 43.819 96.6805 44.1054 94.7706 44.1054C92.8761 44.1054 91.226 43.8151 89.8203 43.2346C88.4223 42.654 87.3299 41.7945 86.543 40.6562C85.7638 39.5103 85.3551 38.0932 85.3169 36.4049H90.1182C90.1717 37.1918 90.3971 37.8488 90.7943 38.3759C91.1992 38.8954 91.7378 39.2888 92.4101 39.5562C93.09 39.8159 93.8577 39.9458 94.7133 39.9458C95.5537 39.9458 96.2832 39.8236 96.902 39.5791C97.5285 39.3346 98.0136 38.9947 98.3574 38.5592C98.7011 38.1238 98.873 37.6234 98.873 37.0581C98.873 36.531 98.7164 36.0879 98.4032 35.7288C98.0976 35.3698 97.6469 35.0642 97.051 34.8121C96.4628 34.56 95.7409 34.3308 94.8852 34.1245L92.3299 33.4828C90.3512 33.0016 88.789 32.2491 87.6431 31.2254C86.4972 30.2017 85.928 28.8228 85.9357 27.0886C85.928 25.6677 86.3062 24.4263 87.0701 23.3644C87.8417 22.3025 88.8998 21.4737 90.2443 20.8778C91.5888 20.2819 93.1167 19.984 94.8279 19.984C96.5697 19.984 98.09 20.2819 99.3887 20.8778C100.695 21.4737 101.711 22.3025 102.437 23.3644C103.163 24.4263 103.537 25.6562 103.56 27.0543H98.8043Z" fill="#FFED88"/>
<circle cx="33.6132" cy="33.6134" r="32.2689" fill="#DCC542"/>
<circle cx="32.2689" cy="32.2689" r="32.2689" fill="#FFED88"/>
<circle cx="31.5967" cy="32.9412" r="28.9076" fill="#FFB864"/>
<circle cx="32.2688" cy="32.2688" r="28.9076" fill="#FFAF50"/>
<path d="M31.299 46.7067V17.3713H33.1783V46.7067H31.299ZM36.2837 27.0543C36.192 26.1299 35.7986 25.4118 35.1034 24.8999C34.4082 24.3881 33.4648 24.1322 32.273 24.1322C31.4632 24.1322 30.7795 24.2468 30.2218 24.476C29.6642 24.6975 29.2363 25.0069 28.9384 25.4041C28.6481 25.8014 28.503 26.2521 28.503 26.7563C28.4877 27.1765 28.5755 27.5432 28.7665 27.8564C28.9651 28.1696 29.2363 28.4408 29.5801 28.67C29.9239 28.8915 30.3211 29.0863 30.7719 29.2544C31.2226 29.4148 31.7039 29.5524 32.2157 29.6669L34.3242 30.1711C35.3479 30.4003 36.2875 30.7059 37.1431 31.0879C37.9988 31.4698 38.7398 31.9397 39.3662 32.4973C39.9926 33.055 40.4778 33.712 40.8215 34.4683C41.1729 35.2246 41.3525 36.0917 41.3601 37.0695C41.3525 38.5058 40.9858 39.751 40.26 40.8052C39.5419 41.8518 38.503 42.6654 37.1431 43.246C35.791 43.819 34.16 44.1054 32.2501 44.1054C30.3555 44.1054 28.7054 43.8151 27.2998 43.2346C25.9017 42.654 24.8093 41.7945 24.0224 40.6562C23.2432 39.5103 22.8345 38.0932 22.7963 36.4049H27.5977C27.6512 37.1918 27.8765 37.8488 28.2738 38.3759C28.6787 38.8954 29.2172 39.2888 29.8895 39.5562C30.5694 39.8159 31.3372 39.9458 32.1928 39.9458C33.0331 39.9458 33.7627 39.8236 34.3815 39.5791C35.0079 39.3346 35.493 38.9947 35.8368 38.5592C36.1806 38.1238 36.3525 37.6234 36.3525 37.0581C36.3525 36.531 36.1959 36.0879 35.8826 35.7288C35.5771 35.3698 35.1263 35.0642 34.5305 34.8121C33.9422 34.56 33.2203 34.3308 32.3647 34.1245L29.8093 33.4828C27.8307 33.0016 26.2684 32.2491 25.1225 31.2254C23.9766 30.2017 23.4075 28.8228 23.4151 27.0886C23.4075 25.6677 23.7856 24.4263 24.5496 23.3644C25.3211 22.3025 26.3792 21.4737 27.7237 20.8778C29.0683 20.2819 30.5962 19.984 32.3074 19.984C34.0492 19.984 35.5694 20.2819 36.8681 20.8778C38.1745 21.4737 39.1905 22.3025 39.9163 23.3644C40.642 24.4263 41.0163 25.6562 41.0392 27.0543H36.2837Z" fill="#FFED88"/>
<circle cx="63.8654" cy="47.7312" r="32.2689" fill="#DCC542"/>
<circle cx="62.5213" cy="46.3866" r="32.2689" fill="#FFED88"/>
<circle cx="61.8489" cy="47.0589" r="28.9076" fill="#FFB864"/>
<circle cx="62.5211" cy="46.3865" r="28.9076" fill="#FFAF50"/>
<path d="M61.5506 60.8243V31.489H63.4299V60.8243H61.5506ZM66.5354 41.1719C66.4437 40.2476 66.0503 39.5295 65.3551 39.0176C64.6599 38.5058 63.7164 38.2499 62.5247 38.2499C61.7149 38.2499 61.0312 38.3645 60.4735 38.5936C59.9158 38.8152 59.488 39.1246 59.1901 39.5218C58.8998 39.9191 58.7546 40.3698 58.7546 40.874C58.7393 41.2942 58.8272 41.6609 59.0182 41.9741C59.2168 42.2873 59.488 42.5585 59.8318 42.7877C60.1755 43.0092 60.5728 43.204 61.0235 43.3721C61.4743 43.5325 61.9555 43.67 62.4674 43.7846L64.5759 44.2888C65.5995 44.518 66.5392 44.8236 67.3948 45.2056C68.2504 45.5875 68.9914 46.0573 69.6179 46.615C70.2443 47.1727 70.7294 47.8297 71.0732 48.586C71.4246 49.3423 71.6041 50.2094 71.6118 51.1872C71.6041 52.6234 71.2374 53.8687 70.5117 54.9229C69.7936 55.9695 68.7546 56.7831 67.3948 57.3637C66.0426 57.9366 64.4116 58.2231 62.5018 58.2231C60.6072 58.2231 58.9571 57.9328 57.5514 57.3522C56.1534 56.7716 55.061 55.9122 54.2741 54.7739C53.4949 53.628 53.0862 52.2109 53.048 50.5226H57.8493C57.9028 51.3094 58.1282 51.9664 58.5254 52.4936C58.9303 53.013 59.4689 53.4065 60.1412 53.6738C60.8211 53.9336 61.5888 54.0635 62.4445 54.0635C63.2848 54.0635 64.0144 53.9412 64.6332 53.6968C65.2596 53.4523 65.7447 53.1124 66.0885 52.6769C66.4322 52.2415 66.6041 51.7411 66.6041 51.1758C66.6041 50.6486 66.4475 50.2056 66.1343 49.8465C65.8287 49.4874 65.378 49.1819 64.7821 48.9298C64.1939 48.6777 63.472 48.4485 62.6163 48.2422L60.061 47.6005C58.0823 47.1192 56.5201 46.3667 55.3742 45.3431C54.2283 44.3194 53.6591 42.9405 53.6668 41.2063C53.6591 39.7854 54.0373 38.544 54.8012 37.4821C55.5728 36.4202 56.6309 35.5913 57.9754 34.9955C59.3199 34.3996 60.8478 34.1017 62.559 34.1017C64.3008 34.1017 65.8211 34.3996 67.1198 34.9955C68.4261 35.5913 69.4422 36.4202 70.1679 37.4821C70.8937 38.544 71.268 39.7739 71.2909 41.1719H66.5354Z" fill="#FFED88"/>
</svg>
