<svg width="152" height="80" viewBox="0 0 152 80" fill="none" xmlns="http://www.w3.org/2000/svg">
<circle cx="119.305" cy="15.7589" r="15.5308" fill="#F3A140"/>
<path d="M102.915 29.8776C97.6785 30.1252 93.2772 33.1993 92.3113 37.3708L87.7328 57.1457C86.4259 62.7901 91.8431 67.9987 99.0203 67.9987H140.296C147.473 67.9987 152.89 62.7901 151.583 57.1457L147.005 37.3708C146.039 33.1993 141.638 30.1252 136.401 29.8776C132.739 34.1335 126.606 36.9239 119.658 36.9239C112.71 36.9239 106.577 34.1335 102.915 29.8776Z" fill="#F3A140"/>
<circle cx="31.7675" cy="15.7589" r="15.5308" fill="#F3A140"/>
<path d="M15.3778 29.8776C10.1408 30.1252 5.7395 33.1993 4.77369 37.3708L0.195136 57.1457C-1.11173 62.7901 4.30544 67.9987 11.4826 67.9987H52.7582C59.9353 67.9987 65.3525 62.7901 64.0456 57.1457L59.4671 37.3708C58.5013 33.1993 54.0999 30.1252 48.863 29.8776C45.2011 34.1335 39.0682 36.9239 32.1204 36.9239C25.1726 36.9239 19.0397 34.1335 15.3778 29.8776Z" fill="#F3A140"/>
<circle cx="75.5363" cy="27.76" r="15.5308" fill="#FFAF50"/>
<path d="M59.1465 41.8789C53.9096 42.1265 49.5082 45.2006 48.5424 49.3721L43.9639 69.147C42.657 74.7915 48.0742 80 55.2514 80H96.5269C103.704 80 109.121 74.7915 107.814 69.147L103.236 49.3721C102.27 45.2006 97.8687 42.1265 92.6317 41.8789C88.9698 46.1348 82.8369 48.9252 75.8891 48.9252C68.9413 48.9252 62.8084 46.1348 59.1465 41.8789Z" fill="#FFAF50"/>
</svg>
