<svg width="18" height="14" viewBox="0 0 18 14" fill="none" xmlns="http://www.w3.org/2000/svg">
<g clip-path="url(#clip0_5_415)">
<path d="M17.9998 1.70478C17.3258 1.98925 16.6109 2.17597 15.8788 2.25875C16.6413 1.82334 17.2268 1.13386 17.5025 0.312345C16.7776 0.722154 15.9845 1.01089 15.1575 1.16608C14.4839 0.482355 13.5242 0.0550537 12.4619 0.0550537C10.4225 0.0550537 8.76893 1.63029 8.76893 3.57314C8.76893 3.84892 8.80162 4.1174 8.86455 4.37496C5.79541 4.22819 3.07432 2.82759 1.25287 0.699053C0.935059 1.21866 0.752949 1.82307 0.752949 2.46774C0.752949 3.68835 1.40496 4.76515 2.3958 5.39608C1.80936 5.37859 1.23582 5.22769 0.723067 4.95599C0.722856 4.97073 0.722856 4.98546 0.722856 5.00027C0.722856 6.70485 1.99579 8.12682 3.68512 8.45003C3.14131 8.59092 2.5709 8.61154 2.01745 8.51031C2.48735 9.90803 3.8512 10.9251 5.46712 10.9536C4.20325 11.8972 2.61089 12.4597 0.880777 12.4597C0.582653 12.4597 0.288746 12.443 -0.000167847 12.4105C1.63411 13.4087 3.57522 13.9911 5.66069 13.9911C12.4534 13.9911 16.1678 8.63022 16.1678 3.98115C16.1678 3.82855 16.1643 3.67683 16.1571 3.52598C16.8801 3.02807 17.5041 2.41135 17.9998 1.70478Z" fill="#323232"/>
</g>
<defs>
<clipPath id="clip0_5_415">
<rect width="18" height="14" fill="white"/>
</clipPath>
</defs>
</svg>
